HIERARCHY
ROOT Root
{
  OFFSET 0.0 0.0 0.0
  CHANNELS 6 Xposition Yposition Zposition Zrotation Yrotation Xrotation
  JOINT Hips
  {
    OFFSET 0.0 100.0 0.0
    CHANNELS 6 Xposition Yposition Zposition Zrotation Yrotation Xrotation
    JOINT Spine1
    {
      OFFSET 5.003913 -0.037094 -0.013727
      CHANNELS 3 Zrotation Yrotation Xrotation
      JOINT Spine2
      {
        OFFSET 7.125363 -1e-06 0.0
        CHANNELS 3 Zrotation Yrotation Xrotation
        JOINT Chest
        {
          OFFSET 7.594027 1e-06 0.0
          CHANNELS 3 Zrotation Yrotation Xrotation
          JOINT Neck1
          {
            OFFSET 26.313086 -0.460272 -0.181672
            CHANNELS 3 Zrotation Yrotation Xrotation
            JOINT Neck2
            {
              OFFSET 8.04591 0.0 0.0
              CHANNELS 3 Zrotation Yrotation Xrotation
              JOINT Head
              {
                OFFSET 6.432777 0.0 0.0
                CHANNELS 3 Zrotation Yrotation Xrotation
                JOINT HeadEnd
                {
                  OFFSET 16.169769 0.06451 0.00362
                  CHANNELS 3 Zrotation Yrotation Xrotation
                }
                JOINT Jaw
                {
                  OFFSET 0.108738 3.12938 0.002639
                  CHANNELS 3 Zrotation Yrotation Xrotation
                }
                JOINT LeftEye
                {
                  OFFSET 4.451729 8.166359 3.206392
                  CHANNELS 3 Zrotation Yrotation Xrotation
                }
                JOINT RightEye
                {
                  OFFSET 4.43689 8.135758 -3.222429
                  CHANNELS 3 Zrotation Yrotation Xrotation
                }
              }
            }
          }
          JOINT LeftShoulder
          {
            OFFSET 23.218927 5.195579 1.621656
            CHANNELS 3 Zrotation Yrotation Xrotation
            JOINT LeftArm
            {
              OFFSET 15.902122 2e-06 -2e-06
              CHANNELS 3 Zrotation Yrotation Xrotation
              JOINT LeftForeArm
              {
                OFFSET 28.739304 0.0 -1e-06
                CHANNELS 3 Zrotation Yrotation Xrotation
                JOINT LeftHand
                {
                  OFFSET 27.093979 -4e-06 0.0
                  CHANNELS 3 Zrotation Yrotation Xrotation
                  JOINT LeftHandThumb1
                  {
                    OFFSET 2.276787 3.380274 0.83384
                    CHANNELS 3 Zrotation Yrotation Xrotation
                    JOINT LeftHandThumb2
                    {
                      OFFSET 4.705307 -2e-06 -1e-06
                      CHANNELS 3 Zrotation Yrotation Xrotation
                      JOINT LeftHandThumb3
                      {
                        OFFSET 2.798515 0.0 3e-06
                        CHANNELS 3 Zrotation Yrotation Xrotation
                        JOINT LeftHandThumbEnd
                        {
                          OFFSET 3.180786 5e-06 -4e-06
                          CHANNELS 3 Zrotation Yrotation Xrotation
                        }
                      }
                    }
                  }
                  JOINT LeftHandIndex1
                  {
                    OFFSET 3.24778 2.352677 0.137192
                    CHANNELS 3 Zrotation Yrotation Xrotation
                    JOINT LeftHandIndex2
                    {
                      OFFSET 6.367104 1e-06 0.0
                      CHANNELS 3 Zrotation Yrotation Xrotation
                      JOINT LeftHandIndex3
                      {
                        OFFSET 3.662361 0.0 0.0
                        CHANNELS 3 Zrotation Yrotation Xrotation
                        JOINT LeftHandIndex4
                        {
                          OFFSET 2.329239 4e-06 -4e-06
                          CHANNELS 3 Zrotation Yrotation Xrotation
                          JOINT LeftHandIndexEnd
                          {
                            OFFSET 2.767822 0.0 0.0
                            CHANNELS 3 Zrotation Yrotation Xrotation
                          }
                        }
                      }
                    }
                  }
                  JOINT LeftHandMiddle1
                  {
                    OFFSET 3.163612 0.945023 -0.406112
                    CHANNELS 3 Zrotation Yrotation Xrotation
                    JOINT LeftHandMiddle2
                    {
                      OFFSET 6.276794 3e-06 0.0
                      CHANNELS 3 Zrotation Yrotation Xrotation
                      JOINT LeftHandMiddle3
                      {
                        OFFSET 4.356522 -1e-06 4e-06
                        CHANNELS 3 Zrotation Yrotation Xrotation
                        JOINT LeftHandMiddle4
                        {
                          OFFSET 2.996872 0.0 8e-06
                          CHANNELS 3 Zrotation Yrotation Xrotation
                          JOINT LeftHandMiddleEnd
                          {
                            OFFSET 2.323257 3e-06 -4e-06
                            CHANNELS 3 Zrotation Yrotation Xrotation
                          }
                        }
                      }
                    }
                  }
                  JOINT LeftHandRing1
                  {
                    OFFSET 2.882607 -0.309162 0.107445
                    CHANNELS 3 Zrotation Yrotation Xrotation
                    JOINT LeftHandRing2
                    {
                      OFFSET 6.033195 0.0 4e-06
                      CHANNELS 3 Zrotation Yrotation Xrotation
                      JOINT LeftHandRing3
                      {
                        OFFSET 4.350578 3e-06 0.0
                        CHANNELS 3 Zrotation Yrotation Xrotation
                        JOINT LeftHandRing4
                        {
                          OFFSET 2.651321 1e-06 -7e-06
                          CHANNELS 3 Zrotation Yrotation Xrotation
                          JOINT LeftHandRingEnd
                          {
                            OFFSET 1.937668 1e-06 -4e-06
                            CHANNELS 3 Zrotation Yrotation Xrotation
                          }
                        }
                      }
                    }
                  }
                  JOINT LeftHandPinky1
                  {
                    OFFSET 2.865311 -1.525436 0.575687
                    CHANNELS 3 Zrotation Yrotation Xrotation
                    JOINT LeftHandPinky2
                    {
                      OFFSET 5.549362 1e-06 -8e-06
                      CHANNELS 3 Zrotation Yrotation Xrotation
                      JOINT LeftHandPinky3
                      {
                        OFFSET 3.070969 0.0 -4e-06
                        CHANNELS 3 Zrotation Yrotation Xrotation
                        JOINT LeftHandPinky4
                        {
                          OFFSET 1.549675 1e-06 0.0
                          CHANNELS 3 Zrotation Yrotation Xrotation
                          JOINT LeftHandPinkyEnd
                          {
                            OFFSET 1.952118 0.0 0.0
                            CHANNELS 3 Zrotation Yrotation Xrotation
                          }
                        }
                      }
                    }
                  }
                }
              }
            }
          }
          JOINT RightShoulder
          {
            OFFSET 23.161718 5.296122 -1.380114
            CHANNELS 3 Zrotation Yrotation Xrotation
            JOINT RightArm
            {
              OFFSET -16.027195 -2e-06 1.1e-05
              CHANNELS 3 Zrotation Yrotation Xrotation
              JOINT RightForeArm
              {
                OFFSET -28.736641 4e-06 2e-06
                CHANNELS 3 Zrotation Yrotation Xrotation
                JOINT RightHand
                {
                  OFFSET -27.133617 6e-06 0.0
                  CHANNELS 3 Zrotation Yrotation Xrotation
                  JOINT RightHandThumb1
                  {
                    OFFSET -2.274328 -3.351035 -0.83067
                    CHANNELS 3 Zrotation Yrotation Xrotation
                    JOINT RightHandThumb2
                    {
                      OFFSET -4.703592 -3e-06 2e-06
                      CHANNELS 3 Zrotation Yrotation Xrotation
                      JOINT RightHandThumb3
                      {
                        OFFSET -2.794937 -4e-06 -3e-06
                        CHANNELS 3 Zrotation Yrotation Xrotation
                        JOINT RightHandThumbEnd
                        {
                          OFFSET -3.183853 4e-06 1e-06
                          CHANNELS 3 Zrotation Yrotation Xrotation
                        }
                      }
                    }
                  }
                  JOINT RightHandIndex1
                  {
                    OFFSET -3.253498 -2.33755 -0.127667
                    CHANNELS 3 Zrotation Yrotation Xrotation
                    JOINT RightHandIndex2
                    {
                      OFFSET -6.344433 0.0 0.0
                      CHANNELS 3 Zrotation Yrotation Xrotation
                      JOINT RightHandIndex3
                      {
                        OFFSET -3.654869 0.0 -8e-06
                        CHANNELS 3 Zrotation Yrotation Xrotation
                        JOINT RightHandIndex4
                        {
                          OFFSET -2.327587 -1e-06 0.0
                          CHANNELS 3 Zrotation Yrotation Xrotation
                          JOINT RightHandIndexEnd
                          {
                            OFFSET -2.770004 3e-06 8e-06
                            CHANNELS 3 Zrotation Yrotation Xrotation
                          }
                        }
                      }
                    }
                  }
                  JOINT RightHandMiddle1
                  {
                    OFFSET -3.168224 -0.944764 0.411762
                    CHANNELS 3 Zrotation Yrotation Xrotation
                    JOINT RightHandMiddle2
                    {
                      OFFSET -6.266689 -1e-06 -4e-06
                      CHANNELS 3 Zrotation Yrotation Xrotation
                      JOINT RightHandMiddle3
                      {
                        OFFSET -4.348904 0.0 0.0
                        CHANNELS 3 Zrotation Yrotation Xrotation
                        JOINT RightHandMiddle4
                        {
                          OFFSET -3.000237 2e-06 -4e-06
                          CHANNELS 3 Zrotation Yrotation Xrotation
                          JOINT RightHandMiddleEnd
                          {
                            OFFSET -2.32148 -4e-06 -4e-06
                            CHANNELS 3 Zrotation Yrotation Xrotation
                          }
                        }
                      }
                    }
                  }
                  JOINT RightHandRing1
                  {
                    OFFSET -2.885654 0.293261 -0.119232
                    CHANNELS 3 Zrotation Yrotation Xrotation
                    JOINT RightHandRing2
                    {
                      OFFSET -6.032833 -1e-06 -4e-06
                      CHANNELS 3 Zrotation Yrotation Xrotation
                      JOINT RightHandRing3
                      {
                        OFFSET -4.33881 0.0 -4e-06
                        CHANNELS 3 Zrotation Yrotation Xrotation
                        JOINT RightHandRing4
                        {
                          OFFSET -2.654903 -4e-06 -4e-06
                          CHANNELS 3 Zrotation Yrotation Xrotation
                          JOINT RightHandRingEnd
                          {
                            OFFSET -1.935123 0.0 4e-06
                            CHANNELS 3 Zrotation Yrotation Xrotation
                          }
                        }
                      }
                    }
                  }
                  JOINT RightHandPinky1
                  {
                    OFFSET -2.866241 1.503903 -0.60527
                    CHANNELS 3 Zrotation Yrotation Xrotation
                    JOINT RightHandPinky2
                    {
                      OFFSET -5.553177 -1e-06 0.0
                      CHANNELS 3 Zrotation Yrotation Xrotation
                      JOINT RightHandPinky3
                      {
                        OFFSET -3.062664 -1e-06 -4e-06
                        CHANNELS 3 Zrotation Yrotation Xrotation
                        JOINT RightHandPinky4
                        {
                          OFFSET -1.546532 2e-06 4e-06
                          CHANNELS 3 Zrotation Yrotation Xrotation
                          JOINT RightHandPinkyEnd
                          {
                            OFFSET -1.952339 0.0 -4e-06
                            CHANNELS 3 Zrotation Yrotation Xrotation
                          }
                        }
                      }
                    }
                  }
                }
              }
            }
          }
        }
      }
    }
    JOINT LeftLeg
    {
      OFFSET -8.443107 2.567604 10.043214
      CHANNELS 3 Zrotation Yrotation Xrotation
      JOINT LeftShin
      {
        OFFSET 43.229202 1e-06 -1e-06
        CHANNELS 3 Zrotation Yrotation Xrotation
        JOINT LeftFoot
        {
          OFFSET 42.298607 1e-06 1e-06
          CHANNELS 3 Zrotation Yrotation Xrotation
          JOINT LeftToeBase
          {
            OFFSET 14.165863 1e-06 0.0
            CHANNELS 3 Zrotation Yrotation Xrotation
            JOINT LeftToeEnd
            {
              OFFSET 6.714096 -0.234461 0.0
              CHANNELS 3 Zrotation Yrotation Xrotation
            }
          }
        }
      }
    }
    JOINT RightLeg
    {
      OFFSET -8.303924 2.592729 -10.047277
      CHANNELS 3 Zrotation Yrotation Xrotation
      JOINT RightShin
      {
        OFFSET -43.369686 0.0 0.0
        CHANNELS 3 Zrotation Yrotation Xrotation
        JOINT RightFoot
        {
          OFFSET -42.260784 4e-06 3e-06
          CHANNELS 3 Zrotation Yrotation Xrotation
          JOINT RightToeBase
          {
            OFFSET -14.222237 -2e-06 -2e-06
            CHANNELS 3 Zrotation Yrotation Xrotation
            JOINT RightToeEnd
            {
              OFFSET -6.660072 0.232574 -1e-06
              CHANNELS 3 Zrotation Yrotation Xrotation
            }
          }
        }
      }
    }
  }
}
MOTION
Frames: 4
Frame Time: 0.03333333333333333
0.0 0.0 0.0 0.0 -0.0 0.0 -7.883406 98.271164 26.496136 85.741135 6.620429 -75.794945 -4.892109 -5.515073 -0.662554 -12.319716 -1.647643 -1.211597 15.922811 -0.751743 -3.496227 31.377661 -0.528926 2.621144 -2.758362 -0.380121 4.44785 -25.505325 0.051094 5.432457 5e-06 0.0 -1e-06 -0.082864 0.016009 0.062984 -0.094408 0.080166 0.106929 -0.072689 -0.046084 0.025751 -140.070114 -72.010704 155.284561 53.61755 -48.379131 -10.954658 29.729181 0.455023 0.277403 0.18653 -1.456541 10.819128 17.636488 -26.32255 52.410767 -19.466372 -14.395459 29.410065 4e-06 -8.774714 -8e-06 15.936575 -18.354578 6.30334 -0.609773 -1.795632 -3.889293 -4.807041 -11.046682 -2.937809 -1.5e-05 -20.975746 3.7e-05 -5.019927 -25.033216 -4.031806 5e-06 2e-06 0.0 -10.634437 -5.686911 -3.56556 10.573137 -17.922741 -3.11383 -1.5e-05 -13.821042 2.8e-05 -0.501836 -31.181087 -4.026902 -11.811264 -59.470219 7.848484 -13.982584 -7.150125 -2.875017 13.772573 -8.40139 -3.218187 0.347672 -34.211102 0.771729 -0.963049 -17.733166 2.621024 1e-06 -1e-06 -3e-06 -17.346256 -20.095007 -4.20174 21.757328 -1.638349 3.866398 -3e-06 -6.33875 1.3e-05 -1.6976 -22.591454 -6.193892 -2e-06 -2e-06 -6e-06 42.014526 -69.522346 152.451752 22.767004 -59.806046 -3.352655 38.962616 0.268731 0.010774 8.497374 -3.496178 -0.1453 22.181929 -20.375793 49.932983 -16.701649 -16.743387 28.476315 -1.6e-05 -12.690469 8e-06 16.136282 -17.926661 2.62349 -0.105922 -1.513842 -4.275852 -5.038991 -5.612822 -2.953535 1.6e-05 -11.020447 8e-06 -6.111208 -15.895224 -3.840439 2e-06 -2e-06 0.0 -10.283281 -5.680233 -4.341811 11.02819 -11.302322 -2.372602 -1.384238 -14.238468 -6.320067 -0.625411 -26.924009 -3.827545 -4.223793 -50.10535 -3.556166 -13.708401 -7.363404 -3.720918 18.14098 -14.052641 -3.242635 1.3e-05 -18.78714 2.5e-05 -0.429711 -8.455998 2.555505 -0.0 -6e-06 1e-06 -15.923383 -20.094303 -5.473549 30.418917 -7.190777 1.735903 3e-06 -8.162869 9e-06 -1.86187 -22.861322 -6.167858 0.0 -3e-06 -2e-06 174.217392 11.490633 -9.072606 13.350049 0.128202 -0.424668 -82.6278 -6.846602 2.877052 -4.295316 1.459291 2.19509 -0.999996 -2e-06 -1e-06 -21.034479 -11.5303 -4.934701 49.094353 0.06002 -0.115247 -84.98291 3.104528 -8.444872 -9.257143 0.620684 1.610789 -1.000001 1e-06 0.0 
0.0 0.0 0.0 0.0 -0.0 0.0 -8.864861 98.345016 24.797991 86.484833 6.547491 -75.569572 -4.724456 -5.310214 -0.696182 -12.251455 -1.641627 -1.429876 16.053593 -0.328143 -3.4912 31.265974 -0.068281 2.570713 -2.751339 -0.350103 4.033215 -25.559374 0.028747 4.97613 6e-06 -0.0 1e-06 -0.083932 0.014953 0.063184 -0.090563 0.074968 0.106537 -0.067704 -0.042485 0.025039 -139.776215 -72.505531 154.776016 54.62326 -48.688625 -11.607741 31.169132 0.535205 0.323999 0.083145 -2.272294 10.559267 17.636587 -26.322691 52.411125 -19.466599 -14.395602 29.410351 -3e-06 -8.774815 -1e-06 15.924124 -18.302162 6.315298 -0.609775 -1.795647 -3.889319 -4.80708 -11.046767 -2.937844 1.1e-05 -20.975933 5e-06 -5.019943 -25.033464 -4.031884 7e-06 3e-06 -2e-06 -10.634519 -5.686951 -3.565583 10.573257 -17.92288 -3.113886 5e-06 -13.821156 1.1e-05 -0.501773 -31.181391 -4.026981 -11.724045 -59.461422 7.73184 -13.982694 -7.150174 -2.87504 13.772715 -8.401463 -3.218236 0.347732 -34.211422 0.771684 -0.963033 -17.73333 2.621041 -1e-06 -1e-06 1e-06 -17.346392 -20.09515 -4.201776 21.75753 -1.638376 3.866417 4e-06 -6.338801 6e-06 -1.697575 -22.591663 -6.193985 -4e-06 -3e-06 -2e-06 41.425426 -69.478455 153.098999 23.538427 -59.328316 -3.59471 39.235149 0.163912 0.001959 8.717079 -3.289399 0.121777 22.182129 -20.3759 49.93346 -16.701895 -16.743536 28.476652 -7e-06 -12.69063 4e-06 16.09267 -17.998226 2.640605 -0.10592 -1.513865 -4.275893 -5.039054 -5.612896 -2.953571 1.1e-05 -11.020584 -2.1e-05 -6.111295 -15.895468 -3.840535 -1e-06 -2e-06 -1e-06 -10.283382 -5.680308 -4.341853 11.028312 -11.302442 -2.372654 -1.384259 -14.238657 -6.320176 -0.625383 -26.924412 -3.827693 -4.296054 -50.09417 -3.516382 -13.70854 -7.363503 -3.720956 18.141182 -14.05279 -3.242703 2.2e-05 -18.787373 -3.3e-05 -0.429706 -8.456105 2.555506 3e-06 -3e-06 -2e-06 -15.923552 -20.094549 -5.473615 30.419258 -7.19084 1.735915 7e-06 -8.162962 -1.1e-05 -1.861858 -22.861631 -6.168032 -1e-06 -5e-06 -5e-06 175.679855 11.032207 -9.004764 12.553944 0.131748 -0.421188 -83.06871 -6.546002 2.990855 -4.491184 1.473608 2.195632 -0.999997 3e-06 -0.0 -23.889349 -9.656219 -5.35432 45.245228 0.126445 -0.300583 -84.900726 -1.046526 -7.078798 -9.458231 0.717597 1.640643 -1.000006 0.0 -0.0 
0.0 0.0 0.0 0.0 -0.0 0.0 -9.813897 98.319885 23.043638 87.092514 6.570076 -75.044983 -4.612497 -5.145283 -0.697397 -12.198633 -1.646991 -1.631917 16.236116 -0.016345 -3.479106 31.136791 0.483372 2.520737 -2.732237 -0.363945 3.583918 -25.682537 0.051116 4.404283 6e-06 -0.0 -0.0 -0.08131 0.012754 0.064465 -0.080801 0.067537 0.108325 -0.057558 -0.038995 0.024187 -139.698669 -72.817101 154.580505 55.350723 -49.026173 -11.743561 32.740097 0.606674 0.339872 0.041033 -3.350209 10.069141 17.636803 -26.322924 52.411606 -19.46681 -14.395684 29.410645 3.2e-05 -8.774936 -1.5e-05 15.924658 -18.283222 6.312871 -0.609788 -1.79567 -3.889357 -4.80718 -11.046949 -2.937876 -6.3e-05 -20.976326 -6e-06 -5.020121 -25.034065 -4.032012 8e-06 3e-06 -3e-06 -10.634638 -5.687044 -3.565615 10.573333 -17.923124 -3.11392 -4.1e-05 -13.821401 -1e-05 -0.501843 -31.182125 -4.027172 -11.584304 -59.483215 7.569234 -13.982857 -7.150296 -2.87506 13.772855 -8.401545 -3.218254 0.347633 -34.21209 0.771648 -0.963075 -17.733704 2.621023 2e-06 -1e-06 -0.0 -17.346638 -20.095451 -4.201794 21.757799 -1.638332 3.866501 -1.8e-05 -6.338909 -9e-06 -1.697676 -22.59218 -6.194167 -3e-06 -0.0 -3e-06 40.857906 -69.354118 153.769104 23.707401 -58.816578 -2.937774 39.187218 0.071114 -0.012843 8.933387 -3.383942 0.631918 22.182323 -20.376013 49.933617 -16.701933 -16.743692 28.47673 6e-06 -12.690756 -1.1e-05 16.074665 -18.031004 2.637347 -0.105922 -1.513862 -4.275904 -5.039098 -5.612908 -2.953576 5e-06 -11.020613 -3e-06 -6.111386 -15.89551 -3.840541 -1e-06 -1e-06 0.0 -10.283461 -5.680324 -4.341859 11.028396 -11.302464 -2.372645 -1.384294 -14.238694 -6.320189 -0.625438 -26.924498 -3.827658 -4.334937 -50.092785 -3.494563 -13.708649 -7.363523 -3.720955 18.141329 -14.052814 -3.242692 -3e-06 -18.78743 5e-06 -0.429716 -8.456137 2.555543 1e-06 -3e-06 -3e-06 -15.923698 -20.094599 -5.473608 30.419521 -7.190867 1.735968 2e-06 -8.162994 2e-06 -1.861934 -22.861736 -6.168025 -2e-06 0.0 2e-06 177.067978 10.721159 -8.835534 11.88765 0.117877 -0.425629 -83.55954 -6.17757 3.094482 -4.626016 1.472361 2.191276 -1.000003 -0.0 -0.0 -26.564646 -7.981698 -5.227189 40.636505 0.116437 -0.355423 -83.662895 -3.615475 -6.120973 -9.412721 0.825676 1.664119 -1.000003 -0.0 -0.0 
0.0 0.0 0.0 0.0 -0.0 0.0 -10.705892 98.199188 21.222258 87.543243 6.663248 -74.2248 -4.520257 -5.033118 -0.669421 -12.159208 -1.656869 -1.818414 16.438002 0.173747 -3.49797 30.991789 1.119247 2.473182 -2.714808 -0.405588 3.115178 -25.831161 0.101418 3.741888 6e-06 -0.0 1e-06 -0.076444 0.011378 0.05281 -0.063619 0.058309 0.101158 -0.039736 -0.032181 0.006424 -140.007431 -72.943237 154.873611 55.761517 -49.309067 -11.401082 34.10146 0.589794 0.324369 -0.031516 -4.56312 9.63437 17.636602 -26.322844 52.411182 -19.466576 -14.395597 29.410343 -1e-05 -8.774802 1e-06 15.941612 -18.285097 6.298907 -0.609771 -1.795641 -3.88932 -4.807059 -11.046769 -2.937835 1.8e-05 -20.975975 5e-05 -5.019964 -25.033503 -4.031809 6e-06 -1e-06 -0.0 -10.634498 -5.686936 -3.565586 10.573257 -17.922915 -3.113861 5e-06 -13.821186 3.8e-05 -0.501812 -31.181488 -4.026909 -11.395949 -59.531391 7.396159 -13.982667 -7.150155 -2.875041 13.772696 -8.401484 -3.218225 0.347714 -34.211502 0.771769 -0.963065 -17.733385 2.621092 3e-06 -3e-06 -4e-06 -17.346342 -20.095127 -4.20177 21.757488 -1.638399 3.866415 6e-06 -6.338816 1.7e-05 -1.697582 -22.591719 -6.193938 0.0 -5e-06 0.0 40.384018 -69.102325 154.353943 23.407732 -58.344383 -1.641444 38.679966 0.059039 -0.021677 9.047507 -3.698601 1.205283 22.182039 -20.375948 49.933289 -16.701782 -16.74353 28.476526 -1.2e-05 -12.690583 1.6e-05 16.032839 -18.023525 2.658856 -0.10592 -1.513851 -4.275878 -5.039023 -5.612862 -2.953552 1.3e-05 -11.02053 5e-06 -6.111277 -15.89536 -3.840464 3e-06 -3e-06 2e-06 -10.283343 -5.68027 -4.341833 11.028272 -11.302395 -2.372628 -1.384251 -14.238575 -6.320109 -0.625429 -26.924244 -3.827579 -4.383248 -50.116615 -3.450374 -13.708483 -7.363453 -3.720934 18.141115 -14.052731 -3.242669 4e-06 -18.787279 2.1e-05 -0.429719 -8.456063 2.555515 3e-06 -5e-06 -1e-06 -15.923487 -20.094437 -5.473568 30.419149 -7.190818 1.735899 1e-06 -8.162933 7e-06 -1.86189 -22.861528 -6.167926 -1e-06 -0.0 -3e-06 178.432785 10.541203 -8.640645 11.372109 0.093392 -0.414501 -84.138428 -5.685921 3.213042 -4.768611 1.460996 2.183823 -1.000001 -0.0 -0.0 -28.810627 -6.653146 -4.841187 35.114403 0.078074 -0.323593 -81.510178 -5.074955 -5.449552 -9.328374 0.927631 1.676648 -0.999998 0.0 -0.0 
